<?xml version="1.0" encoding="UTF-8"?>
<svg version="1.1" xmlns="http://www.w3.org/2000/svg" width="1024" height="1024">
<path d="M0 0 C337.92 0 675.84 0 1024 0 C1024 337.92 1024 675.84 1024 1024 C686.08 1024 348.16 1024 0 1024 C0 686.08 0 348.16 0 0 Z " fill="#333333" transform="translate(0,0)"/>
<path d="M0 0 C1.32 0 2.64 0 4 0 C5.58730809 4.33864213 6.42766997 8.42135973 7 13 C7.37617294 16.26410357 7.37617294 16.26410357 8 19 C8.66 19.33 9.32 19.66 10 20 C10.35437205 22.29220405 10.44336611 24.55538982 10.55859375 26.87109375 C10.82049547 29.38740702 10.82049547 29.38740702 14 31 C14.433125 31.94875 14.86625 32.8975 15.3125 33.875 C17.30939819 37.57295962 19.48449909 38.81257721 23 41 C23 41.66 23 42.32 23 43 C23.886875 43.103125 24.77375 43.20625 25.6875 43.3125 C29.30210538 43.81005702 32.77481318 44.67598746 36.3125 45.5625 C43.76866845 47.30937375 50.29480467 47.32365593 57.8515625 46.4296875 C65.03220871 45.76585955 72.07598658 46.33022778 79.25 46.875 C80.58588568 46.96819377 81.92182334 47.06064542 83.2578125 47.15234375 C89.21594089 47.57792435 95.09123191 48.10663935 101 49 C101 49.33 101 49.66 101 50 C95.06 50.495 95.06 50.495 89 51 C92.3 51.33 95.6 51.66 99 52 C99 52.33 99 52.66 99 53 C92.07496884 53.886605 85.26651207 54.18998044 78.2890625 54.28125 C76.65413345 54.30886414 76.65413345 54.30886414 74.98617554 54.33703613 C70.35562318 54.41524497 65.72494272 54.48372371 61.09423828 54.55224609 C57.70077186 54.60389919 54.30743204 54.66113216 50.9140625 54.71875 C49.33910507 54.73911316 49.33910507 54.73911316 47.73233032 54.7598877 C46.27468765 54.78496399 46.27468765 54.78496399 44.78759766 54.81054688 C43.93316071 54.82307495 43.07872375 54.83560303 42.19839478 54.84851074 C39.82262164 54.92009198 39.82262164 54.92009198 37 56 C35.68 56 34.36 56 33 56 C32.67 58.64 32.34 61.28 32 64 C32.86625 64.37125 32.86625 64.37125 33.75 64.75 C38.44197854 67.35665475 40.17892488 69.99522955 41.75 75.0625 C42.55217259 77.89997219 43 80.03566033 43 83 C43.66 83 44.32 83 45 83 C47.64687346 91.47805661 49.6523044 99.81466766 51.0480957 108.57592773 C51.3453257 112.08523288 51.3453257 112.08523288 53 115 C53.11394809 117.68572786 53.16420609 120.34461043 53.16796875 123.03125 C53.17129715 123.85516235 53.17462555 124.67907471 53.17805481 125.5279541 C53.18313615 127.28669679 53.18546277 129.04544919 53.18530273 130.80419922 C53.18744575 133.43344403 53.20546374 136.06223833 53.22460938 138.69140625 C53.27789019 153.64641036 52.69500875 168.12947403 47.5 182.3125 C47.19191406 183.20388672 46.88382813 184.09527344 46.56640625 185.01367188 C44.37208194 191.28115181 44.37208194 191.28115181 42.91992188 194.08666992 C41.82554426 196.1030289 41.82554426 196.1030289 41.625 199 C40.86056963 202.66926576 39.6560356 203.41774316 37 206 C36.21690846 207.35642642 35.47082752 208.73448474 34.75 210.125 C30.23636302 218.54307142 23.84616305 225.42564491 17 232 C16.21625 232.825 15.4325 233.65 14.625 234.5 C4.65 244 4.65 244 1 244 C0.67 244.99 0.34 245.98 0 247 C-3.5625 248.1875 -3.5625 248.1875 -7 249 C-7 249.66 -7 250.32 -7 251 C-10 253 -10 253 -14 253 C-14 253.66 -14 254.32 -14 255 C-15.76858691 255.67260351 -17.53996016 256.33788395 -19.3125 257 C-20.29863281 257.37125 -21.28476562 257.7425 -22.30078125 258.125 C-25 259 -25 259 -28 259 C-28 259.66 -28 260.32 -28 261 C-30.31 261 -32.62 261 -35 261 C-35 261.66 -35 262.32 -35 263 C-38.16135305 263.79363526 -41.329881 264.55471128 -44.5 265.3125 C-45.34820313 265.52583984 -46.19640625 265.73917969 -47.0703125 265.95898438 C-50.3668181 266.73668112 -53.66911736 267.38428248 -57 268 C-57.72493652 268.13481781 -58.44987305 268.26963562 -59.19677734 268.40853882 C-80.92945215 272.24340697 -103.02580693 271.32974816 -125 271.1875 C-138.53 271.125625 -152.06 271.06375 -166 271 C-166 241.96 -166 212.92 -166 183 C-129.6875 182.6875 -129.6875 182.6875 -118.34643555 182.61206055 C-114.90455795 182.5753714 -114.90455795 182.5753714 -111.46272278 182.5349884 C-109.96443659 182.51914809 -108.46608647 182.50865453 -106.96772766 182.50288391 C-80.24944207 182.44113053 -80.24944207 182.44113053 -57 171 C-56.34 171 -55.68 171 -55 171 C-55 170.34 -55 169.68 -55 169 C-54.34 169 -53.68 169 -53 169 C-51.38891511 165.92954674 -50.12540579 162.81907822 -48.9375 159.5625 C-48.59589844 158.63566406 -48.25429688 157.70882812 -47.90234375 156.75390625 C-47.05757758 154.17572379 -46.4698769 151.66909453 -46 149 C-45.34 149 -44.68 149 -44 149 C-44.33 140.09 -44.66 131.18 -45 122 C-45.66 122 -46.32 122 -47 122 C-47 120.35 -47 118.7 -47 117 C-47.66 117 -48.32 117 -49 117 C-49.309375 116.01 -49.61875 115.02 -49.9375 114 C-52.19041372 108.74320133 -56.38066567 105.22096442 -61 102 C-64.33693445 100.89020834 -64.33693445 100.89020834 -67 101 C-67 100.34 -67 99.68 -67 99 C-72.92295536 97.15730278 -78.8887076 96.0388092 -85 95 C-85 94.34 -85 93.68 -85 93 C-120.97 92.67 -156.94 92.34 -194 92 C-193.505 96.455 -193.505 96.455 -193 101 C-192.89710149 103.19880732 -192.82739209 105.39949402 -192.79566956 107.60047913 C-192.76605857 109.46793509 -192.76605857 109.46793509 -192.73584938 111.37311745 C-192.71895491 112.73319877 -192.70227663 114.0932828 -192.68579102 115.45336914 C-192.66514825 116.91974894 -192.64427392 118.38612549 -192.62318993 119.85249901 C-192.56716155 123.8748389 -192.51812391 127.89723514 -192.47130275 131.9196918 C-192.44111191 134.49779086 -192.40946219 137.07586899 -192.3775959 139.65394783 C-191.82700485 184.83853295 -191.88230134 230.02477337 -191.92797244 275.21191657 C-191.94164514 288.98842907 -191.94671756 302.76494525 -191.95248318 316.5414629 C-191.96168475 338.02765062 -191.98166186 359.51381362 -192 381 C-224.01 381 -256.02 381 -289 381 C-289.02923671 363.60415504 -289.05199504 346.20835824 -289.0625 328.8125 C-289.0629343 328.11585157 -289.06336861 327.41920314 -289.06381607 326.70144415 C-289.10606875 256.86162841 -288.80602996 187.02286988 -288.50902146 117.18385881 C-288.4999734 115.05624532 -288.49093508 112.92863178 -288.48189783 110.80101824 C-288.32636761 74.20065622 -288.16572178 37.60031734 -288 1 C-260.09616652 0.95320713 -232.19233895 0.91797549 -204.28847408 0.89637566 C-191.3312187 0.88607836 -178.37398775 0.87204767 -165.41674805 0.84912109 C-154.1186471 0.82913979 -142.82056386 0.81627233 -131.52244574 0.81182301 C-125.54436492 0.80922365 -119.56633473 0.80314639 -113.58827019 0.78853989 C-107.9519371 0.77488101 -102.31567508 0.77079404 -96.67932701 0.77378464 C-94.61993777 0.77323817 -92.56054595 0.76931054 -90.50117111 0.76158905 C-75.65535879 0.70869508 -61.50829232 1.50473826 -47.0625 5.25 C-46.2262207 5.46325928 -45.38994141 5.67651855 -44.52832031 5.89624023 C-34.92106207 8.42941116 -25.32078148 11.56341221 -16.5625 16.3125 C-12.32547265 18.31951296 -8.63585675 18.785377 -4 19 C-1.56953809 12.67162748 -0.40939975 6.76215448 0 0 Z " fill="#0F5674" transform="translate(629,333)"/>
<path d="M0 0 C1.875 2.1875 1.875 2.1875 3 5 C3.5878125 6.299375 3.5878125 6.299375 4.1875 7.625 C5 10 5 10 5 13 C5.66 13 6.32 13 7 13 C9.64687346 21.47805661 11.6523044 29.81466766 13.0480957 38.57592773 C13.3453257 42.08523288 13.3453257 42.08523288 15 45 C15.11394809 47.68572786 15.16420609 50.34461043 15.16796875 53.03125 C15.17129715 53.85516235 15.17462555 54.67907471 15.17805481 55.5279541 C15.18313615 57.28669679 15.18546277 59.04544919 15.18530273 60.80419922 C15.18744575 63.43344403 15.20546374 66.06223833 15.22460938 68.69140625 C15.27789019 83.64641036 14.69500875 98.12947403 9.5 112.3125 C9.19191406 113.20388672 8.88382813 114.09527344 8.56640625 115.01367188 C6.37208194 121.28115181 6.37208194 121.28115181 4.91992188 124.08666992 C3.82554426 126.1030289 3.82554426 126.1030289 3.625 129 C2.86056963 132.66926576 1.6560356 133.41774316 -1 136 C-1.78309154 137.35642642 -2.52917248 138.73448474 -3.25 140.125 C-7.76363698 148.54307142 -14.15383695 155.42564491 -21 162 C-21.78375 162.825 -22.5675 163.65 -23.375 164.5 C-33.35 174 -33.35 174 -37 174 C-37.33 174.99 -37.66 175.98 -38 177 C-41.5625 178.1875 -41.5625 178.1875 -45 179 C-45 179.66 -45 180.32 -45 181 C-48 183 -48 183 -52 183 C-52 183.66 -52 184.32 -52 185 C-53.76858691 185.67260351 -55.53996016 186.33788395 -57.3125 187 C-58.29863281 187.37125 -59.28476562 187.7425 -60.30078125 188.125 C-63 189 -63 189 -66 189 C-66 189.66 -66 190.32 -66 191 C-68.31 191 -70.62 191 -73 191 C-73 191.66 -73 192.32 -73 193 C-76.16135305 193.79363526 -79.329881 194.55471128 -82.5 195.3125 C-83.34820313 195.52583984 -84.19640625 195.73917969 -85.0703125 195.95898438 C-88.3668181 196.73668112 -91.66911736 197.38428248 -95 198 C-95.72493652 198.13481781 -96.44987305 198.26963562 -97.19677734 198.40853882 C-118.92945215 202.24340697 -141.02580693 201.32974816 -163 201.1875 C-176.53 201.125625 -190.06 201.06375 -204 201 C-204 171.96 -204 142.92 -204 113 C-167.6875 112.6875 -167.6875 112.6875 -156.34643555 112.61206055 C-152.90455795 112.5753714 -152.90455795 112.5753714 -149.46272278 112.5349884 C-147.96443659 112.51914809 -146.46608647 112.50865453 -144.96772766 112.50288391 C-118.24944207 112.44113053 -118.24944207 112.44113053 -95 101 C-94.34 101 -93.68 101 -93 101 C-93 100.34 -93 99.68 -93 99 C-92.34 99 -91.68 99 -91 99 C-89.38891511 95.92954674 -88.12540579 92.81907822 -86.9375 89.5625 C-86.42509766 88.17224609 -86.42509766 88.17224609 -85.90234375 86.75390625 C-85.05757758 84.17572379 -84.4698769 81.66909453 -84 79 C-83.34 79 -82.68 79 -82 79 C-82.33 70.09 -82.66 61.18 -83 52 C-83.66 52 -84.32 52 -85 52 C-85 50.35 -85 48.7 -85 47 C-85.66 47 -86.32 47 -87 47 C-87.4640625 45.515 -87.4640625 45.515 -87.9375 44 C-90.62383326 37.6587037 -96.81540679 32.77531859 -103 30 C-103 29.34 -103 28.68 -103 28 C-104.32 27.67 -105.64 27.34 -107 27 C-107.93423645 23.98968256 -108.04449911 23.13349732 -107 20 C-106.34 20 -105.68 20 -105 20 C-105 19.34 -105 18.68 -105 18 C-101.53846154 15 -101.53846154 15 -99 15 C-99 14.34 -99 13.68 -99 13 C-94.61538462 10 -94.61538462 10 -92 10 C-92 9.34 -92 8.68 -92 8 C-86.98200108 4.86375067 -82.77840023 3.25198672 -77 2 C-76.01 1.67 -75.02 1.34 -74 1 C-68.99111602 0.34698994 -64.16471046 -0.06517499 -59.5390625 2.2109375 C-54.07515668 6.53737593 -52.36190096 11.27893032 -51 18 C-50.5886517 22.22965235 -50.49088216 26.43980489 -50.4375 30.6875 C-50.30373348 40.51988602 -50.30373348 40.51988602 -48 50 C-47.67 50.99 -47.34 51.98 -47 53 C-45.37051936 54.22445284 -45.37051936 54.22445284 -43.4375 55.1875 C-41.7359375 56.0846875 -41.7359375 56.0846875 -40 57 C-40 57.66 -40 58.32 -40 59 C-38.41439607 58.74279326 -36.83154076 58.46861201 -35.25 58.1875 C-34.36828125 58.03667969 -33.4865625 57.88585937 -32.578125 57.73046875 C-29.79999644 56.94333232 -28.23869646 55.77635698 -26 54 C-25.34 54 -24.68 54 -24 54 C-20.12574282 44.90525835 -20.5568582 35.75726251 -20.56420898 26.05737305 C-20.56062676 23.86720201 -20.53327012 21.67823613 -20.50390625 19.48828125 C-20.50205322 18.19446533 -20.5002002 16.90064941 -20.49829102 15.56762695 C-19.71026489 9.92557611 -16.67220099 6.07870242 -12.25 2.625 C-7.94890478 -0.42194409 -5.18750252 -0.96716149 0 0 Z " fill="#F8A04A" transform="translate(667,403)"/>
<path d="M0 0 C2.12922298 3.19383448 2.24945182 3.97278526 2.24609566 7.63268566 C2.25007775 8.5896258 2.25405985 9.54656594 2.25816262 10.53250426 C2.24942409 12.1127398 2.24942409 12.1127398 2.24050903 13.72489929 C2.24221788 14.84227236 2.24392673 15.95964543 2.24568737 17.11087829 C2.24899516 20.87435739 2.23795725 24.63766023 2.22705078 28.40112305 C2.22648695 31.09119063 2.22671451 33.78124724 2.22793579 36.47131348 C2.22898547 42.27278676 2.22270023 48.07421512 2.21146011 53.87567711 C2.19521928 62.26365323 2.18999856 70.65160759 2.18748413 79.03959773 C2.1831048 92.64791146 2.16978924 106.25620123 2.15087891 119.86450195 C2.13252627 133.08520386 2.11836675 146.30589926 2.10986328 159.52661133 C2.10933783 160.34127295 2.10881239 161.15593457 2.10827102 161.99528291 C2.10566098 166.08212242 2.10313355 170.16896197 2.10064721 174.25580156 C2.07990729 208.17055559 2.04303354 242.0852651 2 276 C-28.69 276 -59.38 276 -91 276 C-91.07728428 227.0790512 -91.07728428 227.0790512 -91.05859375 212.9765625 C-91.05735441 212.03776875 -91.05611507 211.09897499 -91.05483818 210.13173294 C-91.03101255 194.52298309 -90.93819142 178.91854975 -90.625 163.3125 C-90.60193283 161.96754959 -90.60193283 161.96754959 -90.57839966 160.59542847 C-90.30444724 145.34410322 -89.7920335 129.90119272 -85.1875 115.25 C-84.92179199 114.36932861 -84.65608398 113.48865723 -84.38232422 112.58129883 C-83.60830733 110.04733152 -82.80934135 107.52287282 -82 105 C-81.68458252 103.99428955 -81.68458252 103.99428955 -81.36279297 102.96826172 C-70.29948898 68.06210744 -46.24666159 35.9239502 -18 13 C-17.26394531 12.39800781 -16.52789062 11.79601562 -15.76953125 11.17578125 C-11.35588703 7.6493017 -6.94205732 4.72317444 -2 2 C-1.34 1.34 -0.68 0.68 0 0 Z " fill="#17B6B8" transform="translate(433,437)"/>
<path d="M0 0 C0.99 0 1.98 0 3 0 C3.19335938 0.96421875 3.38671875 1.9284375 3.5859375 2.921875 C3.97652344 4.81679688 3.97652344 4.81679688 4.375 6.75 C4.63023437 8.00296875 4.88546875 9.2559375 5.1484375 10.546875 C5.85075604 13.39480891 6.67344321 15.43916864 8 18 C8 18.99 8 19.98 8 21 C8.66 21 9.32 21 10 21 C11.296875 22.609375 11.296875 22.609375 12.75 24.75 C19.97480163 34.62099403 30.743567 36.10781972 42.15625 38.15625 C43.0946875 38.4346875 44.033125 38.713125 45 39 C45.33 39.99 45.66 40.98 46 42 C45.03320312 42.08636719 44.06640625 42.17273438 43.0703125 42.26171875 C35.67162146 43.06019135 29.70479028 44.00847156 23.1484375 47.78125 C21 49 21 49 18.36328125 49.9921875 C15.26504361 51.31341942 14.01381182 53.3612121 12 56 C11.34 56 10.68 56 10 56 C9.88527344 56.51433594 9.77054688 57.02867187 9.65234375 57.55859375 C8.96570687 60.12834254 8.11175232 62.6184059 7.23510742 65.12866211 C4.83806502 72.02048529 3.01009549 78.74841892 2 86 C1.34 86 0.68 86 0 86 C-0.67138621 82.73011701 -1.33629263 79.45894951 -2 76.1875 C-2.19078125 75.25873047 -2.3815625 74.32996094 -2.578125 73.37304688 C-2.75859375 72.48037109 -2.9390625 71.58769531 -3.125 70.66796875 C-3.29257812 69.84578857 -3.46015625 69.0236084 -3.6328125 68.17651367 C-4 66 -4 66 -4 63 C-4.66 63 -5.32 63 -6 63 C-6 62.34 -6 61.68 -6 61 C-6.99 60.67 -7.98 60.34 -9 60 C-9.268125 59.4225 -9.53625 58.845 -9.8125 58.25 C-11.05106223 55.90325051 -12.07671703 54.99635748 -14.125 53.375 C-15.07375 52.59125 -16.0225 51.8075 -17 51 C-17 50.34 -17 49.68 -17 49 C-17.66 49 -18.32 49 -19 49 C-19 48.34 -19 47.68 -19 47 C-22.3 46.34 -25.6 45.68 -29 45 C-29 44.34 -29 43.68 -29 43 C-29.92683594 42.95101562 -30.85367188 42.90203125 -31.80859375 42.8515625 C-33.00613281 42.77679688 -34.20367188 42.70203125 -35.4375 42.625 C-36.63246094 42.55539062 -37.82742188 42.48578125 -39.05859375 42.4140625 C-40.02925781 42.27742188 -40.99992188 42.14078125 -42 42 C-42.33 41.34 -42.66 40.68 -43 40 C-42.43192627 39.86013672 -41.86385254 39.72027344 -41.27856445 39.57617188 C-23.88784055 35.44724182 -23.88784055 35.44724182 -9 26 C-7.78867016 23.71740433 -6.92659247 21.4231797 -6 19 C-5.34 18.34 -4.68 17.68 -4 17 C-3.76725968 15.10482883 -3.53982974 13.20869829 -3.3515625 11.30859375 C-2.75344709 7.38096925 -1.36813469 3.71719613 0 0 Z " fill="#F7FBFC" transform="translate(630,343)"/>
<path d="M0 0 C0.33 0 0.66 0 1 0 C1.33 21.12 1.66 42.24 2 64 C2.33 64 2.66 64 3 64 C3 130.33 3 196.66 3 265 C-29.01 265 -61.02 265 -94 265 C-94.04030303 231.22605732 -94.04030303 231.22605732 -94.04882812 217.109375 C-94.05476947 207.34927853 -94.06176657 197.58919067 -94.07543945 187.82910156 C-94.08539113 180.72194296 -94.09185459 173.61479132 -94.09408849 166.50762594 C-94.09539478 162.74271176 -94.09847545 158.97781751 -94.10573006 155.2129097 C-94.11375351 151.01514035 -94.11399082 146.81740589 -94.11352539 142.61962891 C-94.11712067 141.36446976 -94.12071594 140.10931061 -94.12442017 138.81611633 C-94.1230455 137.67745621 -94.12167084 136.53879608 -94.12025452 135.3656311 C-94.12117631 134.37193827 -94.1220981 133.37824543 -94.12304783 132.35444069 C-94 130 -94 130 -93 128 C-92.89684774 126.6319281 -92.85357932 125.25908101 -92.84178162 123.88717651 C-92.8319928 123.02618347 -92.82220398 122.16519043 -92.81211853 121.27810669 C-92.80636307 120.33152191 -92.8006076 119.38493713 -92.79467773 118.40966797 C-92.78477814 117.41451172 -92.77487854 116.41935547 -92.76467896 115.39404297 C-92.73300506 112.09344896 -92.70828325 108.79284055 -92.68359375 105.4921875 C-92.66302931 103.20817686 -92.64203298 100.92417008 -92.62062073 98.64016724 C-92.5653474 92.61992505 -92.51596135 86.59964822 -92.46777344 80.5793457 C-92.41759678 74.43958441 -92.36189072 68.29987361 -92.30664062 62.16015625 C-92.19899472 50.10681394 -92.09756407 38.05342784 -92 26 C-91.67 26 -91.34 26 -91 26 C-90.67 53.39 -90.34 80.78 -90 109 C-87.99045317 102.97441036 -87.99045317 102.97441036 -85.98852539 96.94628906 C-85.02394443 94.04382292 -84.04370335 91.14688607 -83.0625 88.25 C-82.72798828 87.23550781 -82.39347656 86.22101563 -82.04882812 85.17578125 C-80.31830132 80.10090303 -78.81672609 75.92772708 -75 72 C-75.63966521 75.78296631 -76.74087009 79.07630914 -78.1875 82.625 C-87.07528228 105.36118724 -90.02939512 126.65773495 -90.5 150.9375 C-90.51956757 151.88335968 -90.53913513 152.82921936 -90.55929565 153.80374146 C-90.88256631 169.53469759 -91.0908418 185.26702147 -91.28515625 201 C-91.29590117 201.86982513 -91.30664608 202.73965027 -91.3177166 203.63583374 C-91.56427891 223.75700079 -91.77748801 243.87855877 -92 264 C-61.31 264 -30.62 264 1 264 C0.89171875 246.72527344 0.89171875 246.72527344 0.78125 229.1015625 C0.73527299 221.62646664 0.68940024 214.15137059 0.64428711 206.67626953 C0.63567746 205.2499072 0.63567746 205.2499072 0.62689388 203.79472947 C0.58434879 196.73815445 0.54210155 189.68157768 0.5 182.625 C0.49405146 181.62904155 0.48810292 180.6330831 0.48197412 179.60694408 C-0.10615044 81.03831522 -0.10615044 81.03831522 -0.0625 34.125 C-0.06164398 33.19774361 -0.06078796 32.27048721 -0.05990601 31.31513214 C-0.04947359 20.87672793 -0.03127552 10.43836407 0 0 Z " fill="#2D797B" transform="translate(434,449)"/>
<path d="M0 0 C0.66 0 1.32 0 2 0 C2.51046875 1.17755859 2.51046875 1.17755859 3.03125 2.37890625 C8.05320028 13.26425062 13.78827324 18.82155554 25 23 C25 23.66 25 24.32 25 25 C24.21496094 25.3403125 23.42992187 25.680625 22.62109375 26.03125 C11.73574938 31.05320028 6.17844446 36.78827324 2 48 C1.34 48 0.68 48 0 48 C-0.3403125 47.21496094 -0.680625 46.42992187 -1.03125 45.62109375 C-6.05320028 34.73574938 -11.78827324 29.17844446 -23 25 C-23 24.34 -23 23.68 -23 23 C-22.21496094 22.6596875 -21.42992187 22.319375 -20.62109375 21.96875 C-9.73574938 16.94679972 -4.17844446 11.21172676 0 0 Z " fill="#949494" transform="translate(967,944)"/>
<path d="M0 0 C4.55164584 0.52926114 8.86505688 1.44801071 13.3125 2.5625 C20.76866845 4.30937375 27.29480467 4.32365593 34.8515625 3.4296875 C42.03220871 2.76585955 49.07598658 3.33022778 56.25 3.875 C57.58588568 3.96819377 58.92182334 4.06064542 60.2578125 4.15234375 C66.21594089 4.57792435 72.09123191 5.10663935 78 6 C78 6.33 78 6.66 78 7 C74.04 7.33 70.08 7.66 66 8 C70.95 8.495 70.95 8.495 76 9 C76 9.33 76 9.66 76 10 C69.07496884 10.886605 62.26651207 11.18998044 55.2890625 11.28125 C54.1991098 11.29965942 53.1091571 11.31806885 51.98617554 11.33703613 C47.35562318 11.41524497 42.72494272 11.48372371 38.09423828 11.55224609 C34.70077186 11.60389919 31.30743204 11.66113216 27.9140625 11.71875 C26.33910507 11.73911316 26.33910507 11.73911316 24.73233032 11.7598877 C23.27468765 11.78496399 23.27468765 11.78496399 21.78759766 11.81054688 C20.50594223 11.82933899 20.50594223 11.82933899 19.19839478 11.84851074 C16.82262164 11.92009198 16.82262164 11.92009198 14 13 C12.68 13 11.36 13 10 13 C9.67 15.64 9.34 18.28 9 21 C8.34 21 7.68 21 7 21 C6.34 20.01 5.68 19.02 5 18 C2.64242641 16.97732427 2.64242641 16.97732427 0 17 C-2.22340852 18.24404198 -2.22340852 18.24404198 -4.125 20.1875 C-4.78757812 20.79980469 -5.45015625 21.41210938 -6.1328125 22.04296875 C-10.51176418 26.63262313 -12.95127001 30.88373735 -14.125 37.125 C-14.37636719 38.42824219 -14.37636719 38.42824219 -14.6328125 39.7578125 C-15.05387011 41.95027581 -15.05387011 41.95027581 -15 44 C-15.42785067 45.42616889 -15.89123565 46.84181466 -16.375 48.25 C-16.64699219 49.04792969 -16.91898438 49.84585938 -17.19921875 50.66796875 C-17.46347656 51.43753906 -17.72773437 52.20710938 -18 53 C-18.391875 54.175625 -18.78375 55.35125 -19.1875 56.5625 C-19.455625 57.366875 -19.72375 58.17125 -20 59 C-20.99 58.67 -21.98 58.34 -23 58 C-23.18175781 56.80503906 -23.36351562 55.61007812 -23.55078125 54.37890625 C-25.01701292 44.32232265 -25.01701292 44.32232265 -27.75 34.5625 C-29 31 -29 31 -28 28 C-28 28.66 -28 29.32 -28 30 C-27.34 30 -26.68 30 -26 30 C-25.3267344 32.89444095 -24.66119596 35.79030013 -24 38.6875 C-23.80921875 39.50412109 -23.6184375 40.32074219 -23.421875 41.16210938 C-22.51266084 45.17239326 -21.72999902 48.85717252 -22 53 C-21.34 53 -20.68 53 -20 53 C-19.92523437 52.09121094 -19.85046875 51.18242187 -19.7734375 50.24609375 C-18.73496078 40.31947809 -16.094331 32.07705457 -12 23 C-11.34 23 -10.68 23 -10 23 C-9.731875 22.401875 -9.46375 21.80375 -9.1875 21.1875 C-7.20731104 17.5397835 -5.10903136 15.79944234 -1.1875 14.5 C1.329464 13.65598812 3.43716901 12.75521002 5.76953125 11.44921875 C9.50508183 9.77341553 12.84925016 9.44903221 16.875 9.3125 C17.56335938 9.27833984 18.25171875 9.24417969 18.9609375 9.20898438 C20.64008613 9.12735909 22.32001168 9.0619843 24 9 C23.505 8.01 23.505 8.01 23 7 C21.13775018 6.39438375 21.13775018 6.39438375 18.88671875 6.03515625 C18.05076172 5.87466797 17.21480469 5.71417969 16.35351562 5.54882812 C14.58820202 5.22680388 12.8225796 4.90646759 11.05664062 4.58789062 C3.10921471 3.056959 3.10921471 3.056959 0 0 Z " fill="#3C4E5D" transform="translate(652,376)"/>
<path d="M0 0 C1.32 0 2.64 0 4 0 C5.58730809 4.33864213 6.42766997 8.42135973 7 13 C7.37617294 16.26410357 7.37617294 16.26410357 8 19 C8.66 19.33 9.32 19.66 10 20 C10.35437205 22.29220405 10.44336611 24.55538982 10.55859375 26.87109375 C10.82049547 29.38740702 10.82049547 29.38740702 14 31 C14.433125 31.94875 14.86625 32.8975 15.3125 33.875 C17.30939819 37.57295962 19.48449909 38.81257721 23 41 C23 41.66 23 42.32 23 43 C17.46721442 41.65871865 14.21578635 37.44835 11 33 C11 32.34 11 31.68 11 31 C10.34 31 9.68 31 9 31 C8.35366725 29.22934889 7.7079517 27.45847247 7.0625 25.6875 C6.52302734 24.20830078 6.52302734 24.20830078 5.97265625 22.69921875 C4.34982062 18.19568694 3.90936025 14.80390684 4 10 C3.01 10 2.02 10 1 10 C0.855625 11.299375 0.71125 12.59875 0.5625 13.9375 C0.125 17.875 0.125 17.875 -1 19 C-1.185625 20.918125 -1.185625 20.918125 -1.375 22.875 C-1.77599583 26.41504134 -2.31169907 27.62188764 -5 30 C-5.41507813 31.09957031 -5.83015625 32.19914062 -6.2578125 33.33203125 C-8.86780952 39.57022855 -15.00659004 42.44577078 -21 45 C-25.99042378 46.67507252 -31.07610398 47.91289269 -36.203125 49.08984375 C-39.76906631 49.59480155 -39.76906631 49.59480155 -41 51 C-36.71 51.66 -32.42 52.32 -28 53 C-28 53.66 -28 54.32 -28 55 C-26.72125 55.144375 -25.4425 55.28875 -24.125 55.4375 C-21.74307106 55.70642746 -20.15547309 55.92226346 -18 57 C-18 57.66 -18 58.32 -18 59 C-17.01 59.495 -17.01 59.495 -16 60 C-20.45143264 59.35731596 -24.58881647 58.29333357 -28.875 56.9375 C-30.02742187 56.57527344 -31.17984375 56.21304688 -32.3671875 55.83984375 C-33.23601563 55.56269531 -34.10484375 55.28554688 -35 55 C-35 54.34 -35 53.68 -35 53 C-36.46808105 52.970271 -36.46808105 52.970271 -37.96582031 52.93994141 C-41.60393597 52.86375376 -45.24165853 52.77505705 -48.87939453 52.68261719 C-50.45255765 52.64438171 -52.02580658 52.60951934 -53.59912109 52.578125 C-55.86326723 52.53235578 -58.12682547 52.47438239 -60.390625 52.4140625 C-61.44240936 52.39673569 -61.44240936 52.39673569 -62.51544189 52.37905884 C-66.1533497 52.26960094 -68.8990378 51.98155656 -72 50 C-69.49996064 48.74998032 -67.66686262 48.80906782 -64.87109375 48.71875 C-63.83533203 48.68136719 -62.79957031 48.64398438 -61.73242188 48.60546875 C-60.10143555 48.55326172 -60.10143555 48.55326172 -58.4375 48.5 C-44.02605595 48.08786122 -44.02605595 48.08786122 -30 45 C-28.88238281 44.65775391 -28.88238281 44.65775391 -27.7421875 44.30859375 C-23.44448558 42.95403753 -19.82385979 41.43336532 -16 39 C-15.34 39 -14.68 39 -14 39 C-14 38.34 -14 37.68 -14 37 C-11.625 34.375 -11.625 34.375 -9 32 C-8.34 32 -7.68 32 -7 32 C-6.67 29.69 -6.34 27.38 -6 25 C-6.99 24.38125 -7.98 23.7625 -9 23.125 C-10.485 22.073125 -10.485 22.073125 -12 21 C-12 20.34 -12 19.68 -12 19 C-9.36 19 -6.72 19 -4 19 C-1.56953809 12.67162748 -0.40939975 6.76215448 0 0 Z " fill="#6290B1" transform="translate(629,333)"/>
<path d="M0 0 C0 0.33 0 0.66 0 1 C-8.74618844 2.26319263 -17.47156033 2.1270672 -26.28515625 2.09765625 C-27.76525841 2.09618321 -29.24536108 2.09516473 -30.72546387 2.09460449 C-36.1711506 2.08939358 -41.61682613 2.07543237 -47.0625 2.0625 C-59.251875 2.041875 -71.44125 2.02125 -84 2 C-84 31.04 -84 60.08 -84 90 C-70.47 89.896875 -56.94 89.79375 -43 89.6875 C-38.78089844 89.66260498 -34.56179688 89.63770996 -30.21484375 89.61206055 C-11.63468181 89.45692698 6.6455446 89.22958588 25 86 C25.8509021 85.85245773 26.7018042 85.70491547 27.57849121 85.55290222 C32.06655062 84.7656201 36.53783892 83.92524222 41 83 C40 85 40 85 38 86.0625 C34.63980198 87.11256188 31.4853431 87.46591292 27.98828125 87.75390625 C25.9288014 87.89644924 25.9288014 87.89644924 24 89 C20.36613567 89.31713725 16.73152308 89.51171036 13.08984375 89.71875 C10.13091514 89.65571925 10.13091514 89.65571925 9 91 C6.07805335 91.09525367 3.17979671 91.12552736 0.25756836 91.11352539 C-1.11790413 91.11374443 -1.11790413 91.11374443 -2.52116394 91.1139679 C-5.56751836 91.1132684 -8.61381245 91.10547428 -11.66015625 91.09765625 C-13.76622993 91.0957922 -15.87230403 91.09436824 -17.9783783 91.09336853 C-23.53342883 91.08954231 -29.08845341 91.07971114 -34.64349365 91.06866455 C-40.3072474 91.05845267 -45.97100533 91.05387139 -51.63476562 91.04882812 C-62.75652185 91.03808896 -73.87825877 91.0210113 -85 91 C-85.16611955 87.35491539 -85.32916424 83.70969919 -85.49169922 80.06445312 C-85.53828171 79.04313293 -85.5848642 78.02181274 -85.63285828 76.96954346 C-86.02399555 68.14196077 -86.15617092 59.3349439 -86.125 50.5 C-86.12411377 49.75504272 -86.12322754 49.01008545 -86.12231445 48.24255371 C-86.1006613 32.48322481 -85.63550035 16.74553515 -85 1 C-82.11030553 -0.44484723 -79.56697638 -0.17291823 -76.33813477 -0.22119141 C-75.3108149 -0.23845024 -75.3108149 -0.23845024 -74.26274109 -0.25605774 C-71.98900879 -0.29285276 -69.71524908 -0.32245642 -67.44140625 -0.3515625 C-65.85635506 -0.3746909 -64.27130767 -0.39808134 -62.68626404 -0.42172241 C-59.35476201 -0.47024556 -56.02323487 -0.51514543 -52.69165039 -0.55761719 C-48.44854611 -0.61205351 -44.20564891 -0.67597714 -39.96272373 -0.74279213 C-36.68282782 -0.79325062 -33.40287309 -0.83821415 -30.12287712 -0.88163376 C-28.56056172 -0.90302023 -26.9982689 -0.92613656 -25.43600655 -0.9510994 C-16.90108188 -1.08451052 -8.49141457 -1.03626701 0 0 Z " fill="#5F544D" transform="translate(547,514)"/>
<path d="M0 0 C0.33 0 0.66 0 1 0 C1.33 27.39 1.66 54.78 2 83 C4.00954683 76.97441036 4.00954683 76.97441036 6.01147461 70.94628906 C6.97605557 68.04382292 7.95629665 65.14688607 8.9375 62.25 C9.27201172 61.23550781 9.60652344 60.22101562 9.95117188 59.17578125 C11.68169868 54.10090303 13.18327391 49.92772708 17 46 C16.36033479 49.78296631 15.25912991 53.07630914 13.8125 56.625 C4.92471772 79.36118724 1.97060488 100.65773495 1.5 124.9375 C1.48043243 125.88335968 1.46086487 126.82921936 1.44070435 127.80374146 C0.68596998 164.53052999 0.394177 201.2679798 0 238 C-0.33 238 -0.66 238 -1 238 C-1.03120059 217.45833988 -1.05117008 196.91667992 -1.0625 176.375 C-1.0629343 175.61029766 -1.06336861 174.84559532 -1.06381607 174.05772018 C-1.08804602 130.20231613 -0.9756419 86.35332602 -0.5 42.5 C-0.48804218 41.39672112 -0.47608437 40.29344223 -0.46376419 39.15673065 C-0.32123843 26.10433557 -0.16756253 13.05209742 0 0 Z " fill="#1C9E9D" transform="translate(342,475)"/>
<path d="M0 0 C0 0.33 0 0.66 0 1 C-4.58223758 1.89577723 -9.00472837 2.1378022 -13.65771484 2.11352539 C-14.39986237 2.11367142 -15.14200989 2.11381744 -15.90664673 2.1139679 C-18.34144083 2.11327539 -20.77615689 2.10551419 -23.2109375 2.09765625 C-24.90630044 2.09578972 -26.60166392 2.09436692 -28.29702759 2.09336853 C-32.74560044 2.08956189 -37.19414032 2.07974751 -41.6427002 2.06866455 C-46.18757684 2.05841051 -50.73245885 2.05386237 -55.27734375 2.04882812 C-64.18491027 2.0381235 -73.09245239 2.02106944 -82 2 C-81.83956207 3.18023743 -81.67912415 4.36047485 -81.51382446 5.57647705 C-81.04766556 9.3187037 -80.84142526 13.00285501 -80.77880859 16.77636719 C-80.75563568 18.05840027 -80.73246277 19.34043335 -80.70858765 20.66131592 C-80.68826874 22.03983168 -80.66822565 23.41835152 -80.6484375 24.796875 C-80.62526122 26.23643325 -80.60187064 27.67598807 -80.57827759 29.11553955 C-80.53003446 32.12451552 -80.48509313 35.13351873 -80.44238281 38.14257812 C-80.38774855 41.96616548 -80.32381474 45.78953132 -80.25720787 49.61292648 C-80.2066812 52.58488124 -80.16175495 55.55690206 -80.11836624 58.52896881 C-80.09705914 59.93695189 -80.07395882 61.34490919 -80.0489006 62.75283051 C-79.90101515 71.23802776 -80.10253971 79.55792063 -81 88 C-73.64490938 87.89169374 -66.28990109 87.77891129 -58.93496323 87.66066074 C-55.51851946 87.60586756 -52.10206678 87.55252567 -48.68554688 87.50268555 C-44.74341376 87.44511044 -40.80140137 87.38089003 -36.859375 87.31640625 C-35.65263123 87.29969376 -34.44588745 87.28298126 -33.20257568 87.26576233 C-26.6520576 87.15316055 -20.17897108 86.83856572 -13.65808105 86.19580078 C-9.33315801 85.87721632 -5.06922383 86.13688202 -0.75 86.4375 C0.10207031 86.48970703 0.95414063 86.54191406 1.83203125 86.59570312 C3.88850983 86.72278888 5.94434438 86.86023262 8 87 C8 87.33 8 87.66 8 88 C3.14998675 88.96794708 -1.55765031 89.13640473 -6.48388672 89.11352539 C-7.32714571 89.11364593 -8.1704047 89.11376646 -9.039217 89.11389065 C-11.75273455 89.1131478 -14.46618232 89.10554832 -17.1796875 89.09765625 C-18.86140917 89.09618488 -20.5431313 89.09516537 -22.22485352 89.09460449 C-28.44157602 89.08937418 -34.65828871 89.07541291 -40.875 89.0625 C-61.726875 89.0315625 -61.726875 89.0315625 -83 89 C-83 59.96 -83 30.92 -83 1 C-70.79 0.835 -58.58 0.67 -46 0.5 C-40.23595703 0.42168945 -40.23595703 0.42168945 -34.35546875 0.34179688 C-29.63085938 0.27832031 -29.63085938 0.27832031 -27.4128418 0.24865723 C-25.87735736 0.22802126 -24.34187574 0.20717501 -22.80639648 0.18615723 C-20.46859373 0.15419926 -18.13078265 0.12292735 -15.79296875 0.09179688 C-14.4783667 0.07403198 -13.16376465 0.05626709 -11.80932617 0.03796387 C-7.8723587 -0.00127208 -3.93712138 -0.00643008 0 0 Z " fill="#C27152" transform="translate(546,515)"/>
<path d="M0 0 C12.73528595 -0.02321709 25.47056683 -0.04096275 38.20586967 -0.05181217 C44.12000148 -0.05702054 50.03411875 -0.0640809 55.94824219 -0.07543945 C61.66056587 -0.08634121 67.37287561 -0.09229225 73.08520889 -0.09487724 C75.25957585 -0.09671838 77.43394208 -0.1003136 79.60830307 -0.10573006 C82.6645037 -0.11303729 85.72064745 -0.11398688 88.77685547 -0.11352539 C89.66662582 -0.11712067 90.55639618 -0.12071594 91.47312927 -0.12442017 C97.36910887 -0.11484826 103.14493203 0.31216405 109 1 C109 1.33 109 1.66 109 2 C73.69 2 38.38 2 2 2 C2.33 7.28 2.66 12.56 3 18 C3.07249948 20.80791287 3.11854118 23.61693706 3.11352539 26.42578125 C3.11367142 27.13037476 3.11381744 27.83496826 3.1139679 28.56091309 C3.11329013 30.81147735 3.10560237 33.06195085 3.09765625 35.3125 C3.09578441 36.90388951 3.09436414 38.49527962 3.09336853 40.08666992 C3.08960353 44.21616286 3.07982693 48.34561898 3.06866455 52.47509766 C3.05831878 56.71256004 3.05384311 60.95002855 3.04882812 65.1875 C3.03819737 73.45834998 3.02119616 81.72917037 3 90 C0.01174551 87.01174551 0.6917689 83.70357529 0.68115234 79.69482422 C0.66608391 78.40691483 0.66608391 78.40691483 0.65071106 77.09298706 C0.61974974 74.2468942 0.60280811 71.40089594 0.5859375 68.5546875 C0.56723625 66.58455585 0.54766364 64.6144323 0.5272522 62.64431763 C0.47581471 57.45266482 0.4362513 52.26098601 0.39910889 47.06921387 C0.35914189 41.77394111 0.30801632 36.4787776 0.2578125 31.18359375 C0.16091575 20.78913911 0.07655513 10.39462295 0 0 Z " fill="#374E55" transform="translate(435,425)"/>
<path d="M0 0 C-0.33 0.99 -0.66 1.98 -1 3 C-2.98 3 -4.96 3 -7 3 C-7.33 5.64 -7.66 8.28 -8 11 C-8.66 11 -9.32 11 -10 11 C-10.66 10.01 -11.32 9.02 -12 8 C-14.35757359 6.97732427 -14.35757359 6.97732427 -17 7 C-19.22340852 8.24404198 -19.22340852 8.24404198 -21.125 10.1875 C-21.78757812 10.79980469 -22.45015625 11.41210938 -23.1328125 12.04296875 C-27.51176418 16.63262313 -29.95127001 20.88373735 -31.125 27.125 C-31.37636719 28.42824219 -31.37636719 28.42824219 -31.6328125 29.7578125 C-32.05387011 31.95027581 -32.05387011 31.95027581 -32 34 C-32.42785067 35.42616889 -32.89123565 36.84181466 -33.375 38.25 C-33.64699219 39.04792969 -33.91898438 39.84585938 -34.19921875 40.66796875 C-34.46347656 41.43753906 -34.72773437 42.20710938 -35 43 C-35.391875 44.175625 -35.78375 45.35125 -36.1875 46.5625 C-36.455625 47.366875 -36.72375 48.17125 -37 49 C-37.99 48.67 -38.98 48.34 -40 48 C-40.18175781 46.80503906 -40.36351562 45.61007812 -40.55078125 44.37890625 C-42.01701292 34.32232265 -42.01701292 34.32232265 -44.75 24.5625 C-46 21 -46 21 -45 18 C-45 18.66 -45 19.32 -45 20 C-44.34 20 -43.68 20 -43 20 C-42.3267344 22.89444095 -41.66119596 25.79030013 -41 28.6875 C-40.80921875 29.50412109 -40.6184375 30.32074219 -40.421875 31.16210938 C-39.51266084 35.17239326 -38.72999902 38.85717252 -39 43 C-38.34 43 -37.68 43 -37 43 C-36.92523437 42.09121094 -36.85046875 41.18242187 -36.7734375 40.24609375 C-35.73496078 30.31947809 -33.094331 22.07705457 -29 13 C-28.34 13 -27.68 13 -27 13 C-26.731875 12.401875 -26.46375 11.80375 -26.1875 11.1875 C-24.20731104 7.5397835 -22.10903136 5.79944234 -18.1875 4.5 C-15.55882082 3.59504487 -13.45048101 2.69089557 -11 1.3125 C-7.06889878 -0.40735678 -4.26145669 -0.22042017 0 0 Z " fill="#80AECB" transform="translate(669,386)"/>
<path d="M0 0 C5.51706862 3.50221441 9.93464857 8.23902154 13 14 C13.56408081 17.31259938 13.60105982 20.58254196 13.625 23.9375 C13.67318968 25.81003676 13.72661322 27.68244583 13.78515625 29.5546875 C13.81367676 30.47475586 13.84219727 31.39482422 13.87158203 32.34277344 C14.11119156 37.30077744 14.84893631 42.16420341 15.59765625 47.06640625 C16 50 16 50 16 54 C17.32 54.33 18.64 54.66 20 55 C20 55.66 20 56.32 20 57 C20.99 56.67 21.98 56.34 23 56 C25.06145107 55.931009 27.12501401 55.91532273 29.1875 55.9375 C30.81751953 55.95103516 30.81751953 55.95103516 32.48046875 55.96484375 C33.31191406 55.97644531 34.14335938 55.98804688 35 56 C31.23312546 59.93809611 31.23312546 59.93809611 28.0546875 60.09765625 C26.03645833 60.06510417 24.01822917 60.03255208 22 60 C22 59.34 22 58.68 22 58 C21.4225 57.896875 20.845 57.79375 20.25 57.6875 C16.89568991 56.66257192 14.74104281 55.13106534 12.8125 52.1875 C11.14296535 47.69259901 10.876798 43.05390996 10.7890625 38.296875 C10.76070312 37.23339844 10.73234375 36.16992188 10.703125 35.07421875 C10.6514127 32.87386022 10.60703388 30.67331601 10.5703125 28.47265625 C10.33157109 20.22612991 9.8651053 11.73050768 4.0625 5.375 C-0.76908424 1.74361822 -6.24968729 2.31617903 -12 3 C-14.46770354 3.49685306 -16.62736788 4.13722468 -19 5 C-19 4.34 -19 3.68 -19 3 C-12.88171138 0.51721621 -6.59374935 -1.62259976 0 0 Z " fill="#74888C" transform="translate(605,402)"/>
<path d="M0 0 C0.33 0 0.66 0 1 0 C1.33 27.39 1.66 54.78 2 83 C4.00954683 76.97441036 4.00954683 76.97441036 6.01147461 70.94628906 C6.97605557 68.04382292 7.95629665 65.14688607 8.9375 62.25 C9.27201172 61.23550781 9.60652344 60.22101562 9.95117188 59.17578125 C11.68169868 54.10090303 13.18327391 49.92772708 17 46 C16.36033479 49.78296631 15.25912991 53.07630914 13.8125 56.625 C9.13406299 68.58552593 5.20193095 80.84050617 2.640625 93.43359375 C2 96 2 96 0 100 C0 67 0 34 0 0 Z " fill="#137F8B" transform="translate(342,475)"/>
<path d="M0 0 C0.33 0.99 0.66 1.98 1 3 C1.66 3 2.32 3 3 3 C3.21278058 7.46839215 2.59138085 10.82262526 1 15 C1.66 15 2.32 15 3 15 C3.05407567 17.58361518 3.093707 20.16609255 3.125 22.75 C3.14175781 23.47960937 3.15851563 24.20921875 3.17578125 24.9609375 C3.21072239 28.8044624 3.17499684 31.74606772 1 35 C1.66 35 2.32 35 3 35 C3.02684312 37.81256281 3.04676188 40.62487241 3.0625 43.4375 C3.07087891 44.23994141 3.07925781 45.04238281 3.08789062 45.86914062 C3.0965143 47.91295221 3.0522815 49.95683902 3 52 C2.505 52.495 2.505 52.495 2 53 C2 56.3 2 59.6 2 63 C9.26 63 16.52 63 24 63 C24 63.66 24 64.32 24 65 C16.08 65 8.16 65 0 65 C0 43.55 0 22.1 0 0 Z " fill="#1BDAD4" transform="translate(342,647)"/>
<path d="M0 0 C0 0.33 0 0.66 0 1 C-7.186392 1.89924358 -14.32709949 2.29646056 -21.5625 2.5625 C-23.21862305 2.62727539 -23.21862305 2.62727539 -24.90820312 2.69335938 C-27.60537185 2.79844387 -30.30261703 2.90059413 -33 3 C-30.01076236 4.49461882 -26.87257199 4.35691758 -23.5859375 4.53515625 C-22.49147812 4.59962196 -22.49147812 4.59962196 -21.37490845 4.66539001 C-19.04182252 4.80186566 -16.70844105 4.93225139 -14.375 5.0625 C-12.79424762 5.15389635 -11.21351807 5.24568826 -9.6328125 5.33789062 C-5.7554583 5.56318659 -1.87782815 5.78302102 2 6 C2 6.33 2 6.66 2 7 C-0.39541268 7.19585135 -2.79092774 7.38192107 -5.1875 7.5625 C-6.19780273 7.64661133 -6.19780273 7.64661133 -7.22851562 7.73242188 C-9.9915734 7.93459683 -12.54096572 8.09291391 -15.26757812 7.54101562 C-18.67674508 6.86600544 -22.01908145 6.67216645 -25.48828125 6.46484375 C-26.5430793 6.40037804 -26.5430793 6.40037804 -27.6191864 6.33460999 C-29.85010968 6.19900451 -32.08128343 6.06818176 -34.3125 5.9375 C-35.8313993 5.84601955 -37.35027978 5.754226 -38.86914062 5.66210938 C-42.57921612 5.43778187 -46.28953144 5.21774083 -50 5 C-50 4.34 -50 3.68 -50 3 C-33.43291773 -1.31123745 -16.98276988 -1.90588199 0 0 Z " fill="#146D97" transform="translate(592,380)"/>
<path d="M0 0 C0.99 0.33 1.98 0.66 3 1 C-0.96 2.98 -0.96 2.98 -5 5 C-0.71 5.66 3.58 6.32 8 7 C8 7.66 8 8.32 8 9 C9.27875 9.144375 10.5575 9.28875 11.875 9.4375 C14.25692894 9.70642746 15.84452691 9.92226346 18 11 C18 11.66 18 12.32 18 13 C18.66 13.33 19.32 13.66 20 14 C15.54856736 13.35731596 11.41118353 12.29333357 7.125 10.9375 C5.97257813 10.57527344 4.82015625 10.21304687 3.6328125 9.83984375 C2.76398437 9.56269531 1.89515625 9.28554688 1 9 C1 8.34 1 7.68 1 7 C-0.46808105 6.970271 -0.46808105 6.970271 -1.96582031 6.93994141 C-5.60393597 6.86375376 -9.24165853 6.77505705 -12.87939453 6.68261719 C-14.45255765 6.64438171 -16.02580658 6.60951934 -17.59912109 6.578125 C-19.86326723 6.53235578 -22.12682547 6.47438239 -24.390625 6.4140625 C-25.44240936 6.39673569 -25.44240936 6.39673569 -26.51544189 6.37905884 C-30.1533497 6.26960094 -32.8990378 5.98155656 -36 4 C-33.49996064 2.74998032 -31.66686262 2.80906782 -28.87109375 2.71875 C-27.83533203 2.68136719 -26.79957031 2.64398438 -25.73242188 2.60546875 C-24.10143555 2.55326172 -24.10143555 2.55326172 -22.4375 2.5 C-10.52551554 3.09939326 -10.52551554 3.09939326 0 0 Z " fill="#1D89BD" transform="translate(593,379)"/>
<path d="M0 0 C-4.41246007 2.60222004 -8.0361931 3.43115665 -13.046875 3.7890625 C-15.07767559 3.89359264 -15.07767559 3.89359264 -17 5 C-20.63386433 5.31713725 -24.26847692 5.51171036 -27.91015625 5.71875 C-30.86908486 5.65571925 -30.86908486 5.65571925 -32 7 C-34.86091818 7.09522418 -37.69763621 7.12553326 -40.55883789 7.11352539 C-41.45631241 7.11367142 -42.35378693 7.11381744 -43.27845764 7.1139679 C-46.25988134 7.11326842 -49.2412434 7.10547441 -52.22265625 7.09765625 C-54.28388942 7.09579219 -56.34512304 7.09436823 -58.40635681 7.09336853 C-63.8430401 7.08954237 -69.27969686 7.07971126 -74.71636963 7.06866455 C-80.25947714 7.05845253 -85.80258892 7.05387136 -91.34570312 7.04882812 C-102.23048043 7.03808908 -113.11523802 7.02101149 -124 7 C-124 6.67 -124 6.34 -124 6 C-122.50140442 5.99120064 -122.50140442 5.99120064 -120.97253418 5.98222351 C-111.44380139 5.92439833 -101.91528387 5.85134111 -92.38677216 5.76428509 C-87.49093852 5.72001977 -82.59517981 5.68067456 -77.69921875 5.65356445 C-40.7709056 5.4819879 -40.7709056 5.4819879 -4.4140625 -0.546875 C-2 -1 -2 -1 0 0 Z " fill="#865C4D" transform="translate(588,598)"/>
<path d="M0 0 C0.33 0 0.66 0 1 0 C1.103125 1.051875 1.20625 2.10375 1.3125 3.1875 C1.75263312 6.94101047 1.75263312 6.94101047 3.5625 9.5625 C5.32752946 12.55537604 5.23832928 14.58394702 5 18 C5.66 18.33 6.32 18.66 7 19 C6.98839844 19.78246094 6.97679687 20.56492187 6.96484375 21.37109375 C6.95582031 22.38300781 6.94679688 23.39492188 6.9375 24.4375 C6.92589844 25.44683594 6.91429687 26.45617187 6.90234375 27.49609375 C6.71387324 29.94021067 6.71387324 29.94021067 8 31 C8.09822116 32.46275405 8.12798364 33.93019289 8.12939453 35.39624023 C8.13254669 36.33068466 8.13569885 37.26512909 8.13894653 38.22789001 C8.1369223 39.24452225 8.13489807 40.26115448 8.1328125 41.30859375 C8.13376923 42.34564957 8.13472595 43.38270538 8.13571167 44.45118713 C8.13639369 46.64950623 8.13453791 48.84782732 8.13037109 51.04614258 C8.12502854 54.41947949 8.1303126 57.79268292 8.13671875 61.16601562 C8.13605787 63.2968753 8.13477649 65.42773488 8.1328125 67.55859375 C8.13483673 68.57320175 8.13686096 69.58780975 8.13894653 70.63316345 C8.13579437 71.57076004 8.13264221 72.50835663 8.12939453 73.47436523 C8.12859894 74.30185776 8.12780334 75.12935028 8.12698364 75.98191833 C8 78 8 78 7 80 C6.82251866 81.43393653 6.68108853 82.8724964 6.5625 84.3125 C6.20810576 87.85644243 5.56676512 90.76201875 4 94 C2.875 90.25 2.875 90.25 4 88 C5.89083855 76.48921336 6.31869875 65.03044654 6.26074219 53.38452148 C6.24984882 50.77630228 6.26080346 48.1687477 6.2734375 45.56054688 C6.2721184 43.88020683 6.26956121 42.1998672 6.265625 40.51953125 C6.26967346 39.7507515 6.27372192 38.98197174 6.27789307 38.18989563 C6.23913781 33.73003867 5.59444723 30.1548315 4 26 C3.64824235 24.06924133 3.33567356 22.13093477 3.0625 20.1875 C2.46323453 16.29227444 1.67286702 12.76022491 0.3125 9.0625 C-0.91454881 5.68811578 -1.24073514 3.4966172 0 0 Z " fill="#635D4F" transform="translate(675,416)"/>
<path d="M0 0 C4.41342869 0.51318938 8.57005364 1.39270514 12.875 2.5 C19.07814089 3.9875984 25.0901405 4.47215987 31.43896484 4.70898438 C36.82819565 4.91409782 36.82819565 4.91409782 39 6 C40.53668865 6.22467831 42.07968054 6.40796805 43.625 6.5625 C44.44226563 6.64628906 45.25953125 6.73007812 46.1015625 6.81640625 C46.72804688 6.87699219 47.35453125 6.93757813 48 7 C44.66008621 8.99137119 42.00136135 9.29587669 38.140625 9.4140625 C37.02558594 9.45273437 35.91054688 9.49140625 34.76171875 9.53125 C33.60285156 9.5621875 32.44398438 9.593125 31.25 9.625 C29.48849609 9.68300781 29.48849609 9.68300781 27.69140625 9.7421875 C24.79442732 9.8363982 21.89745374 9.92201602 19 10 C19 9.67 19 9.34 19 9 C20.65 9 22.3 9 24 9 C23.67 8.34 23.34 7.68 23 7 C21.13775018 6.39438375 21.13775018 6.39438375 18.88671875 6.03515625 C18.05076172 5.87466797 17.21480469 5.71417969 16.35351562 5.54882812 C14.58820202 5.22680388 12.8225796 4.90646759 11.05664062 4.58789062 C3.10921471 3.056959 3.10921471 3.056959 0 0 Z " fill="#5780A0" transform="translate(652,376)"/>
<path d="M0 0 C0.33 0 0.66 0 1 0 C1 22.77 1 45.54 1 69 C-5.27 69 -11.54 69 -18 69 C-18.33 68.34 -18.66 67.68 -19 67 C-13.06 67 -7.12 67 -1 67 C-1.01160156 64.8446875 -1.02320313 62.689375 -1.03515625 60.46875 C-1.11788647 40.28978737 -0.77705838 20.16425168 0 0 Z " fill="#1DE8E0" transform="translate(433,643)"/>
<path d="M0 0 C3.08754425 1.35583465 5.04707629 2.82717409 7.25 5.375 C8.03117188 6.25285156 8.03117188 6.25285156 8.828125 7.1484375 C10 9 10 9 10 13 C10.66 13 11.32 13 12 13 C12 14.65 12 16.3 12 18 C12.66 18 13.32 18 14 18 C15.20484722 23.63526965 15.1129643 29.14536115 15.0625 34.875 C15.05798828 35.84953125 15.05347656 36.8240625 15.04882812 37.828125 C15.03710906 40.21881434 15.02070219 42.6093744 15 45 C14.34 45 13.68 45 13 45 C12.67 47.64 12.34 50.28 12 53 C10.68874282 48.90232131 10.33920733 44.38301609 11.49609375 40.2109375 C12.19107119 37.16165665 12.17070074 34.24966328 12.1875 31.125 C12.20167969 29.93132812 12.21585938 28.73765625 12.23046875 27.5078125 C11.99758849 23.96329595 11.2739759 21.29950593 10 18 C9.73058594 17.27554687 9.46117187 16.55109375 9.18359375 15.8046875 C8.68410735 14.51282214 8.18410299 13.22115693 7.68359375 11.9296875 C6.99028281 9.97256976 6.47154484 8.02090645 6 6 C5.34 6 4.68 6 4 6 C2.61061923 4.03852126 1.2739589 2.03833424 0 0 Z " fill="#766753" transform="translate(570,437)"/>
<path d="M0 0 C0.33 0 0.66 0 1 0 C1.04898438 0.90878906 1.09796875 1.81757813 1.1484375 2.75390625 C1.63051761 10.85783922 2.42558369 18.82206628 3.59765625 26.85546875 C4 30 4 30 4 34 C5.32 34.33 6.64 34.66 8 35 C8 35.66 8 36.32 8 37 C9.485 36.505 9.485 36.505 11 36 C13.06145107 35.931009 15.12501401 35.91532273 17.1875 35.9375 C18.81751953 35.95103516 18.81751953 35.95103516 20.48046875 35.96484375 C21.31191406 35.97644531 22.14335938 35.98804688 23 36 C19.23312546 39.93809611 19.23312546 39.93809611 16.0546875 40.09765625 C14.03645833 40.06510417 12.01822917 40.03255208 10 40 C10 39.34 10 38.68 10 38 C9.4225 37.896875 8.845 37.79375 8.25 37.6875 C5.50539201 36.84886978 4.07871528 35.99908707 2 34 C1.171875 31.09375 1.171875 31.09375 0.75 27.5 C0.67410645 26.85796631 0.59821289 26.21593262 0.52001953 25.55444336 C-0.36799674 17.06593411 -0.16509344 8.52065611 0 0 Z " fill="#61625E" transform="translate(617,422)"/>
<path d="M0 0 C2.0625 2.3125 2.0625 2.3125 3 5 C2.67 5.99 2.34 6.98 2 8 C1.67 6.35 1.34 4.7 1 3 C-3.50902727 2.8231754 -7.0427223 2.70894449 -11 5 C-16.07064949 9.71688325 -17.37949174 14.18353425 -18 21 C-18.07996435 24.59439752 -18.06270704 28.17484271 -18.00390625 31.76953125 C-17.9996248 35.31029418 -18.33928014 38.53122072 -19 42 C-19.33 42 -19.66 42 -20 42 C-20.09938095 37.83746725 -20.17170617 33.67557521 -20.21972656 29.51220703 C-20.23975843 28.09802205 -20.26699248 26.68391903 -20.30175781 25.27001953 C-20.35065489 23.22928581 -20.37305123 21.1896531 -20.390625 19.1484375 C-20.41157227 17.92302246 -20.43251953 16.69760742 -20.45410156 15.43505859 C-19.71759289 9.86372685 -16.60459502 6.02590272 -12.25 2.625 C-7.94890478 -0.42194409 -5.18750252 -0.96716149 0 0 Z " fill="#DDC180" transform="translate(667,403)"/>
<path d="M0 0 C0.66 0.33 1.32 0.66 2 1 C-6.07744875 8.66742597 -6.07744875 8.66742597 -12 10 C-12 10.66 -12 11.32 -12 12 C-13.670625 12.680625 -13.670625 12.680625 -15.375 13.375 C-18.96199008 14.72465986 -18.96199008 14.72465986 -21 17 C-22.91796875 17.52734375 -22.91796875 17.52734375 -25.1875 17.9375 C-28.32838059 18.56467264 -30.5969647 19.27229969 -33.5625 20.625 C-37.7398004 22.29592016 -40.54467671 22.2344907 -45 22 C-45 21.67 -45 21.34 -45 21 C-43.02 21 -41.04 21 -39 21 C-39 20.34 -39 19.68 -39 19 C-36.69 19 -34.38 19 -32 19 C-32 18.34 -32 17.68 -32 17 C-30.41701974 16.5196682 -28.83360022 16.04078388 -27.25 15.5625 C-26.36828125 15.29566406 -25.4865625 15.02882813 -24.578125 14.75390625 C-22.39434165 14.11531506 -20.21164502 13.53224167 -18 13 C-18 12.34 -18 11.68 -18 11 C-15.69 10.34 -13.38 9.68 -11 9 C-11 8.34 -11 7.68 -11 7 C-9.9275 6.5875 -8.855 6.175 -7.75 5.75 C-4.47734926 4.36260851 -2.34482838 2.72000092 0 0 Z " fill="#7E5B45" transform="translate(633,575)"/>
<path d="M0 0 C0.33 0.66 0.66 1.32 1 2 C1.66 2 2.32 2 3 2 C3.6732656 4.89444095 4.33880404 7.79030013 5 10.6875 C5.28617188 11.91243164 5.28617188 11.91243164 5.578125 13.16210938 C6.48733916 17.17239326 7.27000098 20.85717252 7 25 C7.66 25 8.32 25 9 25 C9.0825 23.88625 9.165 22.7725 9.25 21.625 C9.62125 19.830625 9.62125 19.830625 10 18 C12.046875 16.7734375 12.046875 16.7734375 14 16 C12.33333333 21 10.66666667 26 9 31 C8.01 30.67 7.02 30.34 6 30 C5.81824219 28.80503906 5.63648438 27.61007812 5.44921875 26.37890625 C4.18457244 18.30501744 2.83483829 10.69456108 0 3 C0 2.01 0 1.02 0 0 Z " fill="#7090A5" transform="translate(623,404)"/>
<path d="M0 0 C0.66 0 1.32 0 2 0 C1.67 0.99 1.34 1.98 1 3 C0.87061667 5.44081373 0.7909856 7.85853475 0.75390625 10.30078125 C0.72095892 11.76758389 0.68774743 13.23438062 0.65429688 14.70117188 C0.6069881 17.00508447 0.56256023 19.30897462 0.52319336 21.61303711 C0.48324842 23.84253888 0.43175383 26.07155305 0.37890625 28.30078125 C0.3704921 28.98223709 0.36207794 29.66369293 0.35340881 30.36579895 C0.24543109 34.5867315 -0.47545452 38.06683277 -2 42 C-3.78337562 36.14863381 -3.22615311 29.8666299 -3.25 23.8125 C-3.270625 22.52279297 -3.29125 21.23308594 -3.3125 19.90429688 C-3.34242919 12.58286843 -2.81564168 6.77976879 0 0 Z " fill="#757D7A" transform="translate(647,412)"/>
<path d="M0 0 C0.66 0.66 1.32 1.32 2 2 C4.49848342 2.31507341 6.90498344 2.5149425 9.4140625 2.6328125 C10.14370209 2.67437469 10.87334167 2.71593689 11.62509155 2.75875854 C13.95800814 2.88962209 16.29137808 3.00745531 18.625 3.125 C20.20577621 3.21138298 21.78650643 3.29861199 23.3671875 3.38671875 C27.24432605 3.60097033 31.12192098 3.80353762 35 4 C35 4.33 35 4.66 35 5 C32.60458732 5.19585135 30.20907226 5.38192107 27.8125 5.5625 C26.80219727 5.64661133 26.80219727 5.64661133 25.77148438 5.73242188 C21.92885834 6.01358963 18.74485034 5.76483328 15 5 C13.30842606 4.86081463 11.61369627 4.7564164 9.91796875 4.68359375 C8.98662109 4.64169922 8.05527344 4.59980469 7.09570312 4.55664062 C6.13599609 4.51732422 5.17628906 4.47800781 4.1875 4.4375 C3.20845703 4.39431641 2.22941406 4.35113281 1.22070312 4.30664062 C-1.18607027 4.2009774 -3.59293983 4.09887673 -6 4 C-6 3.34 -6 2.68 -6 2 C-6.99 1.67 -7.98 1.34 -9 1 C-5.98675805 -0.50662097 -3.31713623 -0.17770373 0 0 Z " fill="#1777A4" transform="translate(559,382)"/>
<path d="M0 0 C0 0.33 0 0.66 0 1 C-2.64 1.33 -5.28 1.66 -8 2 C-8 2.66 -8 3.32 -8 4 C-6.56164795 4.029729 -6.56164795 4.029729 -5.09423828 4.06005859 C-1.54188447 4.13604145 2.01005576 4.2247693 5.56201172 4.31738281 C7.10034021 4.35570301 8.63875925 4.39055056 10.17724609 4.421875 C12.38672276 4.46746059 14.59557448 4.5254634 16.8046875 4.5859375 C17.49432587 4.59748871 18.18396423 4.60903992 18.89450073 4.62094116 C23.77225659 4.77225659 23.77225659 4.77225659 26 7 C-3.34541547 6.21889502 -3.34541547 6.21889502 -15 4 C-15 3.34 -15 2.68 -15 2 C-9.75614911 0.2520497 -5.52677733 -0.19392201 0 0 Z " fill="#106286" transform="translate(550,381)"/>
<path d="M0 0 C2.4377963 -0.05397335 4.87439685 -0.09365616 7.3125 -0.125 C8.00279297 -0.14175781 8.69308594 -0.15851563 9.40429688 -0.17578125 C13.17135396 -0.21217794 14.78431704 -0.14378864 18 2 C15.96175839 4.03824161 11.94129473 3.58172207 9.1328125 3.82421875 C8.34228485 3.89413528 7.5517572 3.96405182 6.73727417 4.03608704 C5.06123077 4.18223643 3.38496133 4.32581269 1.70849609 4.46704102 C-0.85823982 4.68606979 -3.42309509 4.92179975 -5.98828125 5.15820312 C-7.61449483 5.29790906 -9.24079478 5.43661394 -10.8671875 5.57421875 C-11.63602264 5.6470256 -12.40485779 5.71983246 -13.19699097 5.79484558 C-18.65706484 6.22862344 -18.65706484 6.22862344 -22 4 C-8.635 3.01 -8.635 3.01 5 2 C2.525 1.505 2.525 1.505 0 1 C0 0.67 0 0.34 0 0 Z " fill="#426584" transform="translate(691,382)"/>
<path d="M0 0 C0.6875 1.8125 0.6875 1.8125 1 4 C0.0246803 5.02408568 -0.98198643 6.01834406 -2 7 C-2.40992188 8.10214844 -2.81984375 9.20429688 -3.2421875 10.33984375 C-5.79329335 16.461077 -12.1641237 19.42139293 -18 22 C-22.29581464 23.34384191 -26.55566035 24.30170768 -31 25 C-30.67 24.34 -30.34 23.68 -30 23 C-27.70703125 22.2890625 -27.70703125 22.2890625 -24.8125 21.625 C-20.04527823 20.41771656 -16.91124948 18.90836499 -13 16 C-12.34 16 -11.68 16 -11 16 C-11 15.34 -11 14.68 -11 14 C-8.625 11.375 -8.625 11.375 -6 9 C-5.34 9 -4.68 9 -4 9 C-3.67 7.35 -3.34 5.7 -3 4 C-2.34 4 -1.68 4 -1 4 C-0.67 2.68 -0.34 1.36 0 0 Z " fill="#6EB4DB" transform="translate(626,356)"/>
<path d="M0 0 C3.36591866 1.44253657 5.51047079 3.33264727 8 6 C7.67 6.66 7.34 7.32 7 8 C6.67 7.67 6.34 7.34 6 7 C1.63393938 6.37627705 -0.72499976 6.21296281 -4.53125 8.5625 C-6.75727736 10.30950881 -8.90473105 12.09873743 -11 14 C-11.33 13.01 -11.66 12.02 -12 11 C-10.76125579 9.821389 -9.5085199 8.65747085 -8.25 7.5 C-7.55390625 6.8503125 -6.8578125 6.200625 -6.140625 5.53125 C-4 4 -4 4 0 4 C0 2.68 0 1.36 0 0 Z " fill="#3C7392" transform="translate(661,397)"/>
<path d="M0 0 C1.32 0.33 2.64 0.66 4 1 C3.67 1.33 3.34 1.66 3 2 C7.29 2.66 11.58 3.32 16 4 C16 4.66 16 5.32 16 6 C17.27875 6.144375 18.5575 6.28875 19.875 6.4375 C22.25692894 6.70642746 23.84452691 6.92226346 26 8 C26 8.66 26 9.32 26 10 C26.66 10.33 27.32 10.66 28 11 C23.54856736 10.35731596 19.41118353 9.29333357 15.125 7.9375 C13.97257813 7.57527344 12.82015625 7.21304687 11.6328125 6.83984375 C10.76398437 6.56269531 9.89515625 6.28554688 9 6 C9 5.34 9 4.68 9 4 C6.36 4 3.72 4 1 4 C0.67 2.68 0.34 1.36 0 0 Z " fill="#5FA9D1" transform="translate(585,382)"/>
<path d="M0 0 C-0.33 0.99 -0.66 1.98 -1 3 C-2.98 3 -4.96 3 -7 3 C-7.33 5.64 -7.66 8.28 -8 11 C-8.66 11 -9.32 11 -10 11 C-10.66 10.01 -11.32 9.02 -12 8 C-14.05003955 6.80767387 -14.05003955 6.80767387 -16 6 C-11.38503922 1.96190932 -6.07147123 0 0 0 Z " fill="#5D91AF" transform="translate(669,386)"/>
<path d="M0 0 C0.66 0 1.32 0 2 0 C2.33 2.64 2.66 5.28 3 8 C3.99 8.33 4.98 8.66 6 9 C7 10.8125 7 10.8125 8 13 C10.61704726 16.86326025 13.77930657 20.88965328 18 23 C18 23.66 18 24.32 18 25 C12.46721442 23.65871865 9.21578635 19.44835 6 15 C6 14.34 6 13.68 6 13 C5.34 13 4.68 13 4 13 C3.32942113 11.2097939 2.6636531 9.41778511 2 7.625 C1.62875 6.62726563 1.2575 5.62953125 0.875 4.6015625 C0 2 0 2 0 0 Z " fill="#74B6DB" transform="translate(634,351)"/>
<path d="M0 0 C0.33 0 0.66 0 1 0 C1.06058594 1.26457031 1.12117188 2.52914062 1.18359375 3.83203125 C1.26800904 5.49219871 1.35265655 7.15235437 1.4375 8.8125 C1.47681641 9.64587891 1.51613281 10.47925781 1.55664062 11.33789062 C1.59853516 12.14033203 1.64042969 12.94277344 1.68359375 13.76953125 C1.72025146 14.50792236 1.75690918 15.24631348 1.79467773 16.00708008 C1.94842141 18.207495 1.94842141 18.207495 3 21 C2.75653872 23.40383032 2.43482615 25.80023235 2.0625 28.1875 C1.86785156 29.45980469 1.67320312 30.73210938 1.47265625 32.04296875 C1.31667969 33.01878906 1.16070312 33.99460937 1 35 C0.67 35 0.34 35 0 35 C0 23.45 0 11.9 0 0 Z " fill="#197F89" transform="translate(342,540)"/>
<path d="M0 0 C0.66 0.33 1.32 0.66 2 1 C2.144375 1.66 2.28875 2.32 2.4375 3 C2.623125 3.66 2.80875 4.32 3 5 C3.99 5.33 4.98 5.66 6 6 C6 6.66 6 7.32 6 8 C6.66 8.33 7.32 8.66 8 9 C6.68 9 5.36 9 4 9 C4 8.34 4 7.68 4 7 C-1.92295536 5.15730278 -7.8887076 4.0388092 -14 3 C-14 2.67 -14 2.34 -14 2 C-13.07316406 1.93941406 -12.14632812 1.87882812 -11.19140625 1.81640625 C-9.39509766 1.69072266 -9.39509766 1.69072266 -7.5625 1.5625 C-5.77005859 1.44068359 -5.77005859 1.44068359 -3.94140625 1.31640625 C-1.11429756 1.32343886 -1.11429756 1.32343886 0 0 Z " fill="#706D56" transform="translate(558,425)"/>
<path d="M0 0 C0.71264648 1.75683594 0.71264648 1.75683594 1 4 C-0.35522461 5.92285156 -0.35522461 5.92285156 -2.40234375 7.890625 C-3.48999023 8.95410156 -3.48999023 8.95410156 -4.59960938 10.0390625 C-5.37111328 10.76867187 -6.14261719 11.49828125 -6.9375 12.25 C-7.70513672 12.99507812 -8.47277344 13.74015625 -9.26367188 14.5078125 C-11.16510754 16.35019737 -13.07720048 18.1799648 -15 20 C-15 17 -15 17 -13.2421875 15.01953125 C-12.07042969 13.92705078 -12.07042969 13.92705078 -10.875 12.8125 C-6.74389641 8.8314997 -3.26922217 4.70511582 0 0 Z " fill="#7D6144" transform="translate(661,547)"/>
<path d="M0 0 C0.66 0.33 1.32 0.66 2 1 C0.68 3.31 -0.64 5.62 -2 8 C-2.66 8 -3.32 8 -4 8 C-4 8.66 -4 9.32 -4 10 C-5.96875 11.5078125 -5.96875 11.5078125 -8.5 13.125 C-9.3353125 13.66382813 -10.170625 14.20265625 -11.03125 14.7578125 C-11.6809375 15.16773438 -12.330625 15.57765625 -13 16 C-13.66 15.67 -14.32 15.34 -15 15 C-15 14.34 -15 13.68 -15 13 C-14.113125 12.79375 -13.22625 12.5875 -12.3125 12.375 C-8.04948481 10.60544653 -6.79479072 8.62567444 -4 5 C-3.01 4.34 -2.02 3.68 -1 3 C-0.67 2.01 -0.34 1.02 0 0 Z " fill="#765F48" transform="translate(578,494)"/>
<path d="M0 0 C0.99 1.32 1.98 2.64 3 4 C3.33 3.34 3.66 2.68 4 2 C4.66 2 5.32 2 6 2 C5.34 6.29 4.68 10.58 4 15 C3.34 15 2.68 15 2 15 C1.66223316 13.2508503 1.32996329 11.50063855 1 9.75 C0.814375 8.77546875 0.62875 7.8009375 0.4375 6.796875 C0 4 0 4 0 0 Z " fill="#D3DBE3" transform="translate(628,414)"/>
<path d="M0 0 C3.31046246 1.81871086 5.81857934 3.9101521 8 7 C8.70703125 9.73828125 8.70703125 9.73828125 9 12 C8.443125 11.2575 7.88625 10.515 7.3125 9.75 C4.02818401 5.84432693 1.10185487 2.91363004 -4 2 C-5.91561254 1.93311409 -7.83335592 1.91468281 -9.75 1.9375 C-10.73484375 1.94652344 -11.7196875 1.95554687 -12.734375 1.96484375 C-13.85585938 1.98224609 -13.85585938 1.98224609 -15 2 C-10.28545865 -1.14302757 -5.50243452 -0.91707242 0 0 Z " fill="#D7BF89" transform="translate(605,404)"/>
<path d="M0 0 C0 0.33 0 0.66 0 1 C-3.02089478 1.02716089 -6.04154129 1.04691657 -9.0625 1.0625 C-9.91005859 1.07087891 -10.75761719 1.07925781 -11.63085938 1.08789062 C-16.5361722 1.10683006 -21.16444755 0.83326345 -26 0 C-26 -0.33 -26 -0.66 -26 -1 C-17.11837794 -2.57990392 -8.81579205 -1.32346258 0 0 Z " fill="#3C566C" transform="translate(708,381)"/>
<path d="M0 0 C0.33 0.99 0.66 1.98 1 3 C1.66 3 2.32 3 3 3 C3.04254356 4.99954746 3.04080783 7.00041636 3 9 C2.67 9.33 2.34 9.66 2 10 C1.76572222 12.01594582 1.58663876 14.038474 1.4375 16.0625 C1.35371094 17.16722656 1.26992188 18.27195312 1.18359375 19.41015625 C1.12300781 20.26480469 1.06242187 21.11945312 1 22 C0.67 22 0.34 22 0 22 C0 14.74 0 7.48 0 0 Z " fill="#1AC4C0" transform="translate(342,647)"/>
<path d="M0 0 C0.66 0 1.32 0 2 0 C3.00144768 3.00434303 3.0049095 4.05302302 2.5625 7.0625 C1.92163336 12.05797331 1.90550756 16.97090243 2 22 C1.34 22.33 0.68 22.66 0 23 C0 15.41 0 7.82 0 0 Z " fill="#19C3C1" transform="translate(343,614)"/>
<path d="M0 0 C3.3 0.33 6.6 0.66 10 1 C10.33 1.99 10.66 2.98 11 4 C7.37 4.33 3.74 4.66 0 5 C0.99 4.01 1.98 3.02 3 2 C2.01 1.34 1.02 0.68 0 0 Z " fill="#CCD5E1" transform="translate(665,381)"/>
<path d="M0 0 C1.32 0 2.64 0 4 0 C5.125 2.8125 5.125 2.8125 6 6 C5.01 7.485 5.01 7.485 4 9 C4 7.68 4 6.36 4 5 C1.66924071 5.95865509 1.66924071 5.95865509 0 9 C0 6.03 0 3.06 0 0 Z " fill="#617581" transform="translate(629,333)"/>
<path d="M0 0 C0.66 0.33 1.32 0.66 2 1 C-6.5557279 8.92599158 -6.5557279 8.92599158 -12 11 C-12.66 10.67 -13.32 10.34 -14 10 C-13.01 9.67 -12.02 9.34 -11 9 C-11 8.34 -11 7.68 -11 7 C-9.39125 6.38125 -9.39125 6.38125 -7.75 5.75 C-4.47734926 4.36260851 -2.34482838 2.72000092 0 0 Z " fill="#836044" transform="translate(633,575)"/>
<path d="M0 0 C2 3 2 3 2.5 6.125 C2.665 7.07375 2.83 8.0225 3 9 C3.66 9.33 4.32 9.66 5 10 C5 11.98 5 13.96 5 16 C4.34 16 3.68 16 3 16 C2.67 13.36 2.34 10.72 2 8 C1.34 8 0.68 8 0 8 C0 5.36 0 2.72 0 0 Z " fill="#5785A4" transform="translate(634,343)"/>
<path d="M0 0 C2.1484375 0.046875 2.1484375 0.046875 4.0625 0.4375 C6.125 2.75 6.125 2.75 7.0625 5.4375 C6.7325 6.4275 6.4025 7.4175 6.0625 8.4375 C5.7325 6.7875 5.4025 5.1375 5.0625 3.4375 C1.4325 3.1075 -2.1975 2.7775 -5.9375 2.4375 C-3.9375 0.4375 -3.9375 0.4375 0 0 Z " fill="#B7AA83" transform="translate(662.9375,402.5625)"/>
<path d="M0 0 C0.66 0.33 1.32 0.66 2 1 C-1.3 4.3 -4.6 7.6 -8 11 C-8 8 -8 8 -7 5 C-6.34 5 -5.68 5 -5 5 C-4.67 4.01 -4.34 3.02 -4 2 C-2.0625 0.75 -2.0625 0.75 0 0 Z " fill="#71B5DB" transform="translate(647,394)"/>
<path d="M0 0 C1.32 0.33 2.64 0.66 4 1 C3.67 1.33 3.34 1.66 3 2 C7.29 2.66 11.58 3.32 16 4 C16 4.33 16 4.66 16 5 C11.05 4.67 6.1 4.34 1 4 C0.67 2.68 0.34 1.36 0 0 Z " fill="#8DC1DF" transform="translate(585,382)"/>
<path d="M0 0 C2.64 0 5.28 0 8 0 C8.33 0.99 8.66 1.98 9 3 C8.01 3.495 8.01 3.495 7 4 C6.67 4.66 6.34 5.32 6 6 C3.96166576 4.7260411 1.96147874 3.38938077 0 2 C0 1.34 0 0.68 0 0 Z " fill="#4C80A6" transform="translate(617,352)"/>
<path d="M0 0 C0.66 0 1.32 0 2 0 C3.3271261 3.9813783 3.06915913 7.85045227 3 12 C2.67 12 2.34 12 2 12 C2 9.69 2 7.38 2 5 C1.01 5 0.02 5 -1 5 C-1.33 5.99 -1.66 6.98 -2 8 C-1.125 1.125 -1.125 1.125 0 0 Z " fill="#AABAC2" transform="translate(631,338)"/>
<path d="M0 0 C2.31 0 4.62 0 7 0 C6.34 1.32 5.68 2.64 5 4 C2.69 4 0.38 4 -2 4 C-1.01 3.34 -0.02 2.68 1 2 C0.67 1.34 0.34 0.68 0 0 Z " fill="#3D5264" transform="translate(711,382)"/>
<path d="M0 0 C0.99 0 1.98 0 3 0 C3 0.99 3 1.98 3 3 C2.34 3 1.68 3 1 3 C0.71125 4.093125 0.4225 5.18625 0.125 6.3125 C-1 10 -1 10 -3 13 C-2.17812739 8.61667943 -1.09845718 4.32059823 0 0 Z " fill="#D6DFE4" transform="translate(630,343)"/>
<path d="M0 0 C0.66 0 1.32 0 2 0 C1.745504 1.48206495 1.47088238 2.96068615 1.1875 4.4375 C1.03667969 5.26121094 0.88585937 6.08492188 0.73046875 6.93359375 C0.48941406 7.61550781 0.24835937 8.29742187 0 9 C-0.99 9.33 -1.98 9.66 -3 10 C-2.21302675 6.58978257 -1.12880057 3.31114834 0 0 Z " fill="#4F5352" transform="translate(643,448)"/>
<path d="M0 0 C0.99 0.66 1.98 1.32 3 2 C0.36 3.98 -2.28 5.96 -5 8 C-3.95206337 3.80825346 -3.08236365 2.78407039 0 0 Z " fill="#4C86A5" transform="translate(654,403)"/>
<path d="M0 0 C1.98 0 3.96 0 6 0 C3.61426621 1.89213369 1.92824652 3.02391783 -1 4 C-1.66 4.66 -2.32 5.32 -3 6 C-3.66 5.34 -4.32 4.68 -5 4 C-4.34 3.34 -3.68 2.68 -3 2 C-2.01 2 -1.02 2 0 2 C0 1.34 0 0.68 0 0 Z " fill="#655245" transform="translate(615,586)"/>
<path d="M0 0 C0.66 0 1.32 0 2 0 C2.33 2.64 2.66 5.28 3 8 C3.99 8.33 4.98 8.66 6 9 C5.34 10.32 4.68 11.64 4 13 C3.32942113 11.2097939 2.6636531 9.41778511 2 7.625 C1.62875 6.62726563 1.2575 5.62953125 0.875 4.6015625 C0 2 0 2 0 0 Z " fill="#90BED8" transform="translate(634,351)"/>
<path d="M0 0 C0.33 1.32 0.66 2.64 1 4 C0.01 5.485 0.01 5.485 -1 7 C-1.66 7 -2.32 7 -3 7 C-3 7.99 -3 8.98 -3 10 C-3.66 9.67 -4.32 9.34 -5 9 C-3.35 6.03 -1.7 3.06 0 0 Z " fill="#866941" transform="translate(667,536)"/>
</svg>
